<svg xmlns="http://www.w3.org/2000/svg" xmlns:xlink="http://www.w3.org/1999/xlink" fill="none" version="1.1" width="20" height="17" viewBox="0 0 20 17"><g><path d="M4.4589844,10.628906L0.38085938,8.0917969L0.38085938,7.125L4.4589844,4.4941406L4.4589844,5.8769531L1.4179688,7.5585938L4.4589844,9.2929688L4.4589844,10.628906ZM9.7089844,12L9.7089844,10.447266L10.681641,10.447266L10.681641,5.7773438L9.7089844,5.7773438L9.7089844,4.2246094L11.71875,4.2246094L13.271484,5.7773438L13.271484,10.447266L11.71875,12L9.7089844,12ZM7.3125,9.09375L5.7539062,7.5351562L5.7539062,5.7773438L7.3125,4.2246094L9.3105469,4.2246094L9.3105469,5.7773438L8.34375,5.7773438L8.34375,7.5351562L10.283203,7.5351562L10.283203,9.09375L7.3125,9.09375ZM7.3125,12L5.7539062,10.447266L5.7539062,9.9257812L8.34375,9.9257812L8.34375,10.447266L9.3105469,10.447266L9.3105469,12L7.3125,12ZM18.703125,8.0917969L14.613281,10.628906L14.613281,9.2988281L17.660156,7.5644531L14.613281,5.8769531L14.613281,4.4941406L18.703125,7.125L18.703125,8.0917969Z" fill="#FF7700" fill-opacity="1"/></g></svg>