<svg width="337" height="395" xmlns="http://www.w3.org/2000/svg" xmlns:xlink="http://www.w3.org/1999/xlink" overflow="hidden"><defs><filter id="fx0" x="-10%" y="-10%" width="120%" height="120%" filterUnits="userSpaceOnUse" primitiveUnits="userSpaceOnUse"><feComponentTransfer color-interpolation-filters="sRGB"><feFuncR type="discrete" tableValues="1 1"/><feFuncG type="discrete" tableValues="0.752941 0.752941"/><feFuncB type="discrete" tableValues="0 0"/><feFuncA type="linear" slope="0.4" intercept="0"/></feComponentTransfer><feGaussianBlur stdDeviation="0 0"/></filter><clipPath id="clip1"><rect x="119" y="90" width="93" height="142"/></clipPath></defs><g transform="translate(-119 -128)"><g clip-path="url(#clip1)" filter="url(#fx0)" transform="translate(125 135)"><g><path d="M37.352-111.688C33.9173-107.395 32.2-101.261 32.2-93.288 32.2-85.4373 33.9173-79.5493 37.352-75.624 40.7867-71.6987 45.5093-69.736 51.52-69.736 60.5973-69.736 68.08-74.6427 73.968-84.456 71.76-107.027 63.9707-118.312 50.6-118.312 45.3253-118.312 40.9093-116.104 37.352-111.688ZM84.088-16.008C74.0293-3.61867 61.5787 2.576 46.736 2.576 32.016 2.576 21.5893-0.797334 15.456-7.544 13.3707-9.26133 11.96-8.34133 11.224-4.784 10.12-10.1813 11.96-15.5787 16.744-20.976 21.528-26.496 25.944-27.4773 29.992-23.92 31.832-20.976 36.9227-19.504 45.264-19.504 53.6053-19.504 60.352-23.0613 65.504-30.176 70.7787-37.4133 73.4773-45.8773 73.6-55.568 73.8453-58.6347 75.1333-60.1067 77.464-59.984 75.3787-63.4187 72.128-63.296 67.712-59.616 63.4187-56.0587 58.7573-53.2987 53.728-51.336 53.6053-50.7227 51.152-50.416 46.368-50.416 34.592-50.416 25.1467-54.0347 18.032-61.272 10.9173-68.632 7.36-79.1813 7.36-92.92 7.36-106.781 11.4693-117.883 19.688-126.224 28.0293-134.565 38.2107-138.736 50.232-138.736 64.216-138.736 75.8693-133.032 85.192-121.624 94.5147-110.339 99.176-93.0427 99.176-69.736 99.176-46.4293 94.1467-28.52 84.088-16.008Z" fill="#ED7D31" transform="translate(111.796 229)"/></g></g><text fill="#ED7D31" font-family="Swei Fist Sans CJK JP,Swei Fist Sans CJK JP_MSFontService,sans-serif" font-weight="700" font-size="184" transform="translate(229.799 357)">9</text></g></svg>