<svg xmlns="http://www.w3.org/2000/svg" xmlns:xlink="http://www.w3.org/1999/xlink" fill="none" version="1.1" width="51" height="17" viewBox="0 0 51 17"><g><path d="M4.4589844,10.628906L0.38085938,8.0917969L0.38085938,7.125L4.4589844,4.4941406L4.4589844,5.8769531L1.4179688,7.5585938L4.4589844,9.2929688L4.4589844,10.628906Z" fill="#FF9232" fill-opacity="1"/><path d="M10.517578,12L5.8066406,4.2246094L8.5429688,4.2246094L13.271484,12L10.517578,12ZM13.271484,11.261719L11.015625,7.546875L11.015625,4.2246094L13.271484,4.2246094L13.271484,11.261719ZM5.8066406,12L5.8066406,4.9628906L8.0625,8.6601562L8.0625,12L5.8066406,12ZM14.513672,5.0039062L14.513672,3.3515625L17.109375,3.3515625L17.109375,5.0039062L14.513672,5.0039062ZM14.513672,12L14.513672,5.7773438L17.109375,5.7773438L17.109375,12L14.513672,12ZM22.482422,12L22.482422,7.3300781L21.369141,7.3300781L21.369141,6.6503906L22.236328,5.7773438L23.677734,5.7773438L25.078125,7.1777344L25.078125,12L22.482422,12ZM18.333984,12L18.333984,5.7773438L20.947266,5.7773438L20.947266,12L18.333984,12ZM27.779297,12L26.226562,10.447266L26.226562,7.3300781L27.779297,5.7773438L28.816406,5.7773438L28.816406,12L27.779297,12ZM29.226562,9.5039062L29.226562,8.4199219L30.591797,8.4199219L30.591797,7.3300781L29.226562,7.3300781L29.226562,5.7773438L31.423828,5.7773438L32.976562,7.3300781L32.976562,9.5039062L29.226562,9.5039062ZM29.226562,12L29.226562,10.546875L32.707031,10.546875L32.707031,11.220703L31.933594,12L29.226562,12ZM41.162109,12L41.162109,10.447266L42.134766,10.447266L42.134766,5.7773438L41.162109,5.7773438L41.162109,4.2246094L43.171875,4.2246094L44.724609,5.7773438L44.724609,10.447266L43.171875,12L41.162109,12ZM38.765625,9.09375L37.207031,7.5351562L37.207031,5.7773438L38.765625,4.2246094L40.763672,4.2246094L40.763672,5.7773438L39.796875,5.7773438L39.796875,7.5351562L41.736328,7.5351562L41.736328,9.09375L38.765625,9.09375ZM38.765625,12L37.207031,10.447266L37.207031,9.9257812L39.796875,9.9257812L39.796875,10.447266L40.763672,10.447266L40.763672,12L38.765625,12Z" fill="#FF7700" fill-opacity="1"/><path d="M50.15625,8.0917969L46.066406,10.628906L46.066406,9.2988281L49.113281,7.5644531L46.066406,5.8769531L46.066406,4.4941406L50.15625,7.125L50.15625,8.0917969Z" fill="#FF9232" fill-opacity="1"/></g></svg>